<?xml version="1.0" encoding="UTF-8" standalone="no"?>
<svg width="707px" height="659px" viewBox="0 0 707 659" version="1.1" xmlns="http://www.w3.org/2000/svg" xmlns:xlink="http://www.w3.org/1999/xlink">
    <!-- Generator: Sketch 39.1 (31720) - http://www.bohemiancoding.com/sketch -->
    <title>Group</title>
    <desc>Created with Sketch.</desc>
    <defs></defs>
    <g id="Page-1" stroke="none" stroke-width="1" fill="none" fill-rule="evenodd">
        <g id="Group">
            <path d="M82.75,186.785156 C47.90625,273.519531 -35.8671861,392.136719 17.5117187,444.773438 C70.8906236,497.410156 152.441399,542.628906 164.300781,581.179688 C176.160163,619.730469 380.773415,663.730469 380.773437,658.28125 C380.77346,652.832031 474.92579,523.355469 483.820312,512.71875 C492.714835,502.082031 582.417977,372.34375 541.644531,334.535156 C500.871085,296.726563 423.773446,240.386719 402.273437,229.265625 C380.773429,218.144531 117.59375,100.050781 82.75,186.785156 Z" id="Path" fill="#D8D8D8"></path>
            <path d="M485.02442,14.9372328 C468.556059,55.9308969 428.961837,111.99348 454.190553,136.871413 C479.419268,161.749346 517.962984,183.121291 523.568138,201.341723 C529.173292,219.562155 625.880589,240.358076 625.880599,237.782587 C625.88061,235.207097 670.380256,174.011998 674.584115,168.984717 C678.787974,163.957436 721.18478,102.638639 701.91384,84.7689906 C682.642899,66.8993421 646.20389,40.2711843 636.042242,35.0149709 C625.880595,29.7587575 501.492781,-26.0564313 485.02442,14.9372328 Z" id="Path" fill="#888888"></path>
        </g>
    </g>
</svg>